# xmcd
#
# Track frame offsets:
#	150
#	23184
#	43817
#	62174
#	79693
#	90644
#	107203
#	124947
#	141954
#	157632
#	175754
#	193660
#
# Disc length: 2920 seconds
#
# Revision: 1
# Processed by: cddbd v1.5.1PL2 Copyright (c) Steve Scherf et al.
# Submitted via: audiograbber 1.83.01
#
DISCID=9c0b660c
DTITLE=Brian Langlinais - Rock and Fire
DYEAR=2006
DGENRE=Country
TTITLE0=It Could Be You
TTITLE1=The Trouble with the Truth
TTITLE2=Reason to Try
TTITLE3=Leap of Faith
TTITLE4=How Far Down
TTITLE5=I Wish I Could Be That Strong
TTITLE6=Not Far From It
TTITLE7=Back Door to Heaven
TTITLE8=I Could Have Had You
TTITLE9=Shadow of Doubt
TTITLE10=Last Call
TTITLE11=Untitled
EXTD=
EXTT0=
EXTT1=
EXTT2=
EXTT3=
EXTT4=
EXTT5=
EXTT6=
EXTT7=
EXTT8=
EXTT9=
EXTT10=
EXTT11=
PLAYORDER=
